<?xml version="1.0" encoding="utf-8"?>
<!-- Generator: Adobe Illustrator 18.0.0, SVG Export Plug-In . SVG Version: 6.00 Build 0)  -->
<!DOCTYPE svg PUBLIC "-//W3C//DTD SVG 1.1//EN" "http://www.w3.org/Graphics/SVG/1.1/DTD/svg11.dtd">
<svg version="1.1" id="github" xmlns="http://www.w3.org/2000/svg" xmlns:xlink="http://www.w3.org/1999/xlink" x="0px" y="0px"
	 viewBox="0 90 612 612" enable-background="new 0 90 612 612" xml:space="preserve">
<rect y="90" fill="#2B2B2B" width="612" height="612"/>
<path fill="#F7F7F7" d="M306,174.1c-122.6,0-221.9,99.4-221.9,221.9S183.4,617.9,306,617.9S527.9,518.6,527.9,396
	S428.6,174.1,306,174.1z M437.8,527.8c-17.1,17.1-37.1,30.6-59.3,40c-5.6,2.4-11.4,4.5-17.2,6.3v-33.3c0-17.5-6-30.3-18-38.6
	c7.5-0.7,14.4-1.7,20.7-3c6.3-1.3,12.9-3.2,19.9-5.6s13.3-5.4,18.9-8.8c5.6-3.4,10.9-7.8,16-13.2s9.4-11.6,12.9-18.4
	s6.2-15.1,8.2-24.7c2-9.6,3-20.2,3-31.7c0-22.4-7.3-41.5-21.9-57.2c6.6-17.3,5.9-36.2-2.2-56.6l-5.4-0.6c-3.8-0.4-10.5,1.2-20.3,4.8
	c-9.8,3.6-20.7,9.5-32.8,17.8c-17.2-4.8-35-7.2-53.5-7.2c-18.6,0-36.4,2.4-53.3,7.2c-7.7-5.2-14.9-9.5-21.8-12.9
	c-6.9-3.4-12.4-5.7-16.5-6.9c-4.1-1.2-7.9-2-11.5-2.3c-3.5-0.3-5.8-0.4-6.8-0.2c-1,0.1-1.7,0.3-2.2,0.4c-8.1,20.5-8.8,39.4-2.2,56.6
	c-14.6,15.7-21.9,34.8-21.9,57.2c0,11.6,1,22.1,3,31.7c2,9.6,4.8,17.8,8.2,24.7c3.5,6.9,7.8,13,12.9,18.4s10.5,9.8,16,13.2
	c5.6,3.4,11.8,6.3,18.9,8.8c7,2.5,13.6,4.3,19.9,5.6c6.3,1.3,13.2,2.3,20.7,3c-11.8,8.1-17.8,21-17.8,38.6v33.9
	c-6.5-1.9-13-4.2-19.3-6.9c-22.2-9.4-42.1-22.8-59.3-40c-17.1-17.1-30.6-37.1-40-59.3c-9.7-23-14.6-47.4-14.6-72.5
	s4.9-49.6,14.6-72.5c9.4-22.2,22.8-42.1,40-59.3s37.1-30.6,59.3-40c23-9.7,47.4-14.6,72.5-14.6s49.6,4.9,72.5,14.6
	c22.2,9.4,42.1,22.8,59.3,40c17.1,17.1,30.6,37.1,40,59.3c9.7,23,14.6,47.4,14.6,72.5s-4.9,49.6-14.6,72.5
	C468.3,490.7,454.9,510.7,437.8,527.8L437.8,527.8z"/>
</svg>
