<?xml version="1.0" encoding="utf-8"?>
<!-- Generator: Adobe Illustrator 18.0.0, SVG Export Plug-In . SVG Version: 6.00 Build 0)  -->
<!DOCTYPE svg PUBLIC "-//W3C//DTD SVG 1.1//EN" "http://www.w3.org/Graphics/SVG/1.1/DTD/svg11.dtd">
<svg version="1.1" id="stackoverflow" xmlns="http://www.w3.org/2000/svg" xmlns:xlink="http://www.w3.org/1999/xlink" x="0px"
	 y="0px" viewBox="0 90 612 612" enable-background="new 0 90 612 612" xml:space="preserve">
<rect y="90" fill="#2B2B2B" width="612" height="612"/>
<path fill="#F7F7F7" d="M361.8,558.5l-175.2,0.1l0-37.4l175.2-0.1L361.8,558.5z M480.1,346.7l-30-172.6l-36.9,6.4l30,172.6
	L480.1,346.7z M366,473.2l-174.4-16.1l-3.4,37.3l174.4,16.1L366,473.2z M377.5,424.3l-169.2-45.5l-9.7,36.1l169.2,45.5L377.5,424.3z
	 M399.6,381.5l-150.9-89l-19,32.2l150.9,89L399.6,381.5z M436.6,355.3l-98.7-144.7L307,231.7l98.7,144.7L436.6,355.3z M391.5,435.5
	v152.9H161.8V435.5h-29.9v182.3h0.3c0,0.1,8.7,0.1,8.7,0.1h280.3v-0.1c0.3,0,0.3-8.7,0.3-8.7V435.5H391.5z"/>
</svg>
