<?xml version="1.0" encoding="utf-8"?>
<!-- Generator: Adobe Illustrator 18.0.0, SVG Export Plug-In . SVG Version: 6.00 Build 0)  -->
<!DOCTYPE svg PUBLIC "-//W3C//DTD SVG 1.1//EN" "http://www.w3.org/Graphics/SVG/1.1/DTD/svg11.dtd">
<svg version="1.1" id="youtube" xmlns="http://www.w3.org/2000/svg" xmlns:xlink="http://www.w3.org/1999/xlink" x="0px" y="0px"
	 viewBox="0 90 612 612" enable-background="new 0 90 612 612" xml:space="preserve">
<rect y="90" fill="#2B2B2B" width="612" height="612"/>
<path fill="#F7F7F7" d="M520.1,288.9c-4.5-24.2-24.7-42.3-47.9-44.6c-55.3-3.6-110.9-6.4-166.3-6.5c-55.5,0-110.8,2.8-166.1,6.3
	c-23.3,2.3-43.4,20.2-48,44.6c-5.1,35-7.7,70.4-7.7,105.8s2.6,70.7,7.7,105.8c4.5,24.3,24.7,44.5,48,46.7
	c55.4,3.5,110.7,7.1,166.1,7.1c55.4,0,111-3.1,166.3-6.7c23.2-2.3,43.4-23,47.9-47.2c5.2-35,7.8-70.3,7.8-105.6
	C527.9,359.2,525.3,323.9,520.1,288.9z M255.7,458.3v-129l120.1,64.5L255.7,458.3z"/>
</svg>
